<svg width="587" height="130" viewBox="0 0 587 130" fill="none" xmlns="http://www.w3.org/2000/svg">
<g opacity="0.46" clip-path="url(#clip0_95_1309)">
<path d="M102.598 49.2454C103.856 53.2773 105.802 57.3675 101.515 60.8866C101.887 57.0062 102.249 53.1258 102.598 49.2454Z" fill="#A0B453"/>
<path d="M315.716 60.8516C315.623 61.0031 315.53 61.1429 315.437 61.2944C315.553 61.1778 315.67 61.0613 315.786 60.9448C315.786 60.9331 315.716 60.8516 315.716 60.8516Z" fill="#FDFDFB"/>
<path d="M585.8 120.293C583.854 121.015 581.886 121.61 579.894 122.087C578.903 122.321 577.901 122.53 576.888 122.717C573.871 123.264 570.795 123.556 567.696 123.672C566.66 123.707 565.623 123.731 564.574 123.731C563.526 123.731 562.477 123.719 561.429 123.684C559.88 123.637 558.319 123.556 556.757 123.451C556.688 123.451 556.618 123.439 556.548 123.439C555.523 123.369 554.486 123.288 553.449 123.194C552.913 123.148 552.377 123.101 551.841 123.043C548.987 122.763 546.156 122.344 543.36 121.843C542.428 121.668 541.496 121.493 540.564 121.307C538.701 120.922 536.848 120.514 535.008 120.072C531.315 119.186 527.645 118.207 523.975 117.217C522.333 116.774 520.69 116.331 519.048 115.888C517.941 115.597 516.823 115.294 515.716 115.014C513.875 114.536 512.035 114.082 510.182 113.651C509.262 113.429 508.33 113.22 507.41 113.021C505.161 112.532 502.901 112.078 500.641 111.658C494.595 110.551 488.479 109.782 482.247 109.7C474.267 109.596 466.31 109.689 458.377 110.003C434.949 110.936 411.743 113.837 388.817 119.687C386.86 120.188 384.914 120.608 382.969 120.945C382.153 121.085 381.338 121.213 380.534 121.307C379.159 121.47 377.785 121.586 376.422 121.621C371.331 121.773 366.345 120.899 361.568 118.393C359.949 117.543 358.365 116.529 356.804 115.282C355.091 113.907 353.251 113.313 351.328 113.278C350.816 113.266 350.292 113.301 349.767 113.371C348.323 113.558 346.82 114.024 345.294 114.688C329.847 121.365 314.259 122.775 298.579 121.12C297.833 121.039 297.088 120.957 296.342 120.864C294.851 120.677 293.36 120.468 291.857 120.235C291.112 120.118 290.366 119.99 289.609 119.862C285.869 119.209 282.13 118.405 278.379 117.485C276.876 117.112 275.385 116.727 273.882 116.331C267.964 114.734 261.988 112.893 255.953 111.891C255.347 111.786 254.742 111.693 254.136 111.611C252.924 111.448 251.713 111.308 250.489 111.227C248.66 111.099 246.831 111.075 245.003 111.192C243.616 111.274 242.218 111.367 240.832 111.472C237.36 111.74 233.889 112.078 230.429 112.532C223.439 113.441 216.496 114.804 209.716 116.937C201.783 119.431 193.814 121.61 185.718 122.437C179.415 123.078 173.02 122.903 166.484 121.412C161.964 120.386 157.537 119.034 152.924 118.312C151.235 118.044 149.522 117.857 147.775 117.811C144.35 117.718 140.96 117.951 137.605 118.347C126.619 119.675 115.913 122.926 104.811 123.183C95.9925 123.393 87.2669 123.847 80.3587 116.249C75.9668 111.425 72.3438 110.248 67.8121 111.623C67.4044 111.751 66.985 111.891 66.554 112.066C64.8415 112.73 62.9892 113.732 60.9155 114.991C59.2846 115.981 57.6187 116.937 55.9179 117.788C55.1839 118.149 54.45 118.498 53.7044 118.813C52.7142 119.232 51.7007 119.594 50.6872 119.897C49.662 120.2 48.6369 120.433 47.5884 120.584C47.0642 120.666 46.5399 120.724 46.0041 120.759C44.4896 120.864 42.9402 120.771 41.3559 120.456C39.6201 120.118 37.8493 119.501 36.0437 118.557C34.1448 117.554 31.5003 115.643 29.5781 118.988C29.6014 120.724 29.7529 122.484 29.6364 124.208C29.3568 128.566 30.9994 130 35.6476 129.988C219.432 129.86 403.204 129.86 586.988 129.86V119.815C586.592 119.99 586.196 120.141 585.8 120.293Z" fill="#96AC46"/>
<path d="M36.0558 118.557C37.8615 119.512 39.6322 120.118 41.368 120.456C42.9524 120.771 44.5018 120.864 46.0162 120.759C46.5521 120.724 47.0763 120.666 47.6006 120.584C48.649 120.433 49.6858 120.188 50.6994 119.897C51.7245 119.594 52.7264 119.233 53.7166 118.813C54.4622 118.499 55.1961 118.149 55.93 117.788C57.6309 116.937 59.2968 115.993 60.9277 114.991C63.0013 113.721 64.8536 112.73 66.5661 112.066C66.9971 111.903 67.4165 111.752 67.8243 111.623C72.356 110.237 75.979 111.425 80.3709 116.25C87.2907 123.847 96.0046 123.381 104.823 123.183C115.914 122.927 126.631 119.676 137.617 118.347C140.972 117.939 144.362 117.706 147.787 117.811C149.535 117.858 151.247 118.044 152.936 118.312C157.538 119.035 161.965 120.375 166.496 121.412C173.032 122.903 179.427 123.078 185.73 122.437C193.838 121.61 201.795 119.431 209.728 116.937C216.508 114.805 223.451 113.453 230.441 112.532C233.901 112.078 237.373 111.728 240.844 111.472C242.23 111.367 243.628 111.274 245.015 111.192C246.855 111.087 248.684 111.111 250.502 111.227C251.713 111.309 252.936 111.437 254.148 111.612C254.754 111.693 255.36 111.787 255.965 111.891C262.011 112.905 267.988 114.746 273.894 116.331C275.397 116.739 276.9 117.124 278.391 117.485C282.142 118.405 285.881 119.209 289.621 119.862C290.367 119.99 291.112 120.118 291.869 120.235C293.361 120.468 294.863 120.678 296.354 120.864C297.1 120.957 297.846 121.039 298.591 121.121C314.26 122.775 329.847 121.365 345.306 114.688C346.832 114.024 348.323 113.569 349.78 113.371C350.304 113.301 350.828 113.266 351.341 113.278C353.274 113.313 355.103 113.907 356.816 115.282C358.377 116.529 359.973 117.543 361.581 118.394C366.357 120.899 371.343 121.773 376.434 121.622C377.797 121.587 379.171 121.47 380.546 121.307C381.362 121.202 382.177 121.086 382.981 120.946C384.926 120.619 386.872 120.188 388.829 119.687C411.755 113.837 434.961 110.936 458.389 110.004C466.322 109.689 474.279 109.596 482.259 109.701C488.503 109.782 494.607 110.551 500.654 111.658C502.914 112.066 505.174 112.532 507.422 113.022C508.354 113.22 509.274 113.43 510.195 113.651C512.047 114.082 513.887 114.548 515.728 115.014C516.846 115.306 517.953 115.597 519.06 115.888C520.702 116.331 522.345 116.774 523.988 117.217C527.657 118.207 531.327 119.186 535.02 120.072C536.86 120.515 538.713 120.922 540.577 121.307C541.509 121.493 542.441 121.68 543.373 121.843C546.18 122.356 548.999 122.764 551.853 123.043C552.389 123.102 552.925 123.148 553.461 123.195C554.498 123.288 555.523 123.37 556.56 123.439C556.63 123.439 556.7 123.451 556.77 123.451C558.331 123.556 559.892 123.638 561.441 123.684C562.49 123.719 563.55 123.731 564.586 123.731C565.623 123.731 566.672 123.707 567.709 123.672C570.819 123.556 573.883 123.253 576.9 122.717C577.902 122.531 578.904 122.332 579.906 122.088C581.898 121.61 583.867 121.027 585.812 120.293C586.208 120.142 586.616 119.99 587.012 119.827V37.301C586.36 38.0818 586.406 39.585 586.208 40.5755C584.764 47.6022 583.237 54.594 580.605 61.2944C579.719 63.5551 579.731 67.3423 577.052 67.3656C574.209 67.3889 576.096 63.5085 574.826 61.6906C573.895 60.3622 574.104 57.6937 571.833 58.0432C569.666 58.3812 570.19 60.7817 570.015 62.4247C569.573 66.4566 568.757 70.2672 564.738 73.798C564.866 65.8391 564.703 58.9289 568.804 52.7412C569.654 51.4593 571.856 49.8163 569.712 48.348C567.953 47.1478 566.672 49.3502 565.449 50.4805C560.556 55.0135 555.698 59.5931 550.863 64.1377C551.189 51.9604 549.314 39.7015 547.834 27.4077C547.683 26.1841 548.079 24.2265 546.157 24.2731C544.549 24.308 544.398 26.1142 544.165 27.4077C543.641 30.2627 543.256 33.1409 542.778 36.0076C540.402 50.4688 534.915 63.8114 528.613 76.8278C524.675 75.3828 530.476 65.1399 519.165 71.1178C522.17 68.3561 521.471 66.445 523.021 65.4079C524.256 64.5689 524.966 63.1705 523.79 61.9586C522.345 60.4787 521.308 62.215 520.446 63.0074C517.173 66.0255 514.004 69.1601 510.847 72.3181C509.857 73.3086 508.843 74.4855 507.434 73.4601C506.152 72.5162 507.399 71.4208 507.736 70.3837C510.893 60.77 514.505 51.4011 521.005 43.4305C521.902 42.3234 523.708 40.9018 522.194 39.4918C520.318 37.7438 519.13 40.0511 517.965 41.0999C515.215 43.547 512.711 46.2854 509.903 48.6626C504.044 53.6035 498.999 59.3717 493.244 65.6759C492.86 59.6047 492.65 54.6406 492.161 49.6997C492.009 48.1616 492.173 45.6212 489.691 45.8543C487.746 46.0407 488.142 48.2315 488.025 49.7114C487.886 51.4477 488.025 53.2073 487.851 54.9436C487.233 60.8749 487.454 66.9577 485.171 74.2991C483.657 70.372 482.841 68.0181 481.839 65.7458C481.327 64.5689 480.907 62.9724 479.137 63.2055C477.739 63.3919 477.692 64.8252 477.226 65.8624C475.176 70.3487 474.092 75.3944 469.805 78.8087C469.537 78.0979 469.351 77.5619 469.13 77.0492C468.372 75.3362 468.734 72.4929 466.578 72.2015C464.225 71.8869 464.19 74.7419 463.282 76.3383C461.115 80.1139 459.158 84.0992 454.673 86.488C453.939 83.9826 454.276 81.8968 454.859 79.9158C457.014 72.4463 459.589 65.1632 464.272 58.8007C465.227 57.4956 467.301 55.8758 465.495 54.3493C463.561 52.7179 462.524 55.2465 461.499 56.4118C457.107 61.3993 452.832 66.48 448.149 71.9568C447.205 68.8921 448.568 67.0976 449.209 65.1981C453.647 52.1119 461.15 40.9367 470.714 31.0551C471.832 29.9014 473.964 28.6662 472.427 26.7668C471.098 25.1354 469.607 26.8367 468.372 27.5825C449.873 38.7576 433.913 52.5664 422.753 71.4091C420.493 75.2313 418.733 79.5429 414.237 83.1203C414.563 77.8765 414.819 73.6465 415.11 69.4165C415.227 67.7268 416.182 65.5594 414.027 64.8136C412.105 64.1494 410.975 66.0371 409.961 67.4588C406.758 71.9568 403.589 76.4665 399.512 82.2347C399.815 73.53 402.086 67.0393 404.882 60.6651C405.523 59.2085 407.655 57.647 405.767 56.0972C403.869 54.5357 402.622 56.8779 401.492 57.9034C396.553 62.3548 391.765 66.981 385.952 72.4696C387.256 63.054 391.019 55.8059 393.034 48.08C393.5 46.2738 395.05 43.8966 392.883 42.9177C390.553 41.8806 390.029 44.7939 389.05 46.3204C386.383 50.4921 385.439 55.7593 381.012 59.5115C379.964 51.8089 378.892 44.7123 375.816 38.1517C375.106 36.6368 374.698 34.3062 372.531 34.6558C369.782 35.1103 370.656 37.6739 370.76 39.4335C371.378 49.8978 369.141 59.8611 365.588 69.5913C363.526 75.2313 360.695 80.4402 356.21 84.775C352.144 76.1169 352.144 76.1169 344.421 81.687C343.477 80.4285 343.955 79.3215 344.386 77.993C347.1 69.7195 349.686 61.3993 352.331 53.1024C352.797 51.6341 353.775 50.0027 351.981 48.954C350.211 47.9285 349.104 49.5716 348.125 50.6553C345.527 53.5219 343.023 56.4817 340.541 59.4532C334.53 66.6664 329.684 74.7419 324.069 83.4233C322.042 76.4665 322.985 70.3953 322.193 64.5106C321.611 60.2107 319.98 58.4394 315.798 60.8632C315.087 57.647 316.8 54.8969 317.72 52.0536C321.401 40.5755 326.306 29.6567 332.375 19.2274C333.423 17.4328 335.567 14.3564 333.54 13.0163C330.965 11.315 329.952 15.044 328.694 16.6404C323.684 22.933 318.92 29.4237 313.642 36.4154C313.375 34.784 313.153 33.8867 313.083 32.9778C312.326 22.8864 310.171 13.063 307.142 3.42599C306.699 2.00433 306.315 -0.0232763 304.439 0.0582942C302.121 0.151518 302.738 2.29566 302.867 3.69401C304.218 17.9572 300.129 31.3464 296.331 44.7706C294.059 52.8111 291.695 60.8632 287.582 68.3561C286.627 61.8071 287.14 55.2349 285.718 48.8491C285.427 47.5323 285.252 45.9125 283.423 46.134C281.99 46.3087 282.072 47.7654 281.886 48.9073C281.105 53.685 280.569 58.5094 279.463 63.2171C277.261 72.5511 273.859 81.3141 266.054 88.166C265.04 81.7686 267.254 76.4665 268.43 71.0013C268.78 69.3466 270.073 67.3889 268.256 66.1886C266.089 64.7553 264.726 67.016 263.386 68.2279C260.812 70.5818 258.307 73.0289 256 75.6508C251.608 80.6266 247.391 85.7306 242.324 91.6969C242.405 78.7854 244.98 67.9016 250.839 57.7519C256.28 48.3247 262.757 39.62 268.99 30.7404C270.073 29.2023 271.599 27.3611 269.875 25.5432C268.512 24.1099 266.997 25.3801 265.809 26.3706C250.327 39.3403 234.949 52.3916 224.092 69.8243C222.682 72.0967 221.925 76.8744 219.024 75.6392C216.683 74.6487 219.84 70.7682 220.364 68.1347C220.749 66.1537 222.578 63.7415 219.793 62.5646C217.568 61.6207 216.52 64.0678 215.506 65.6409C211.697 71.5606 207.969 77.5386 204.206 83.4932C203.705 83.4466 203.216 83.3883 202.715 83.3417C202.715 76.6296 202.68 69.9176 202.727 63.2055C202.82 50.2125 202.983 37.2195 203.064 24.2148C203.076 22.7931 203.495 20.7073 201.247 20.614C199.651 20.5441 199.523 22.1872 198.999 23.4923C196.692 29.2489 194.921 35.1569 193.186 41.0999C189.411 54.023 186.138 67.1209 180.79 79.7293C180.22 62.1684 175.804 45.5863 169.397 29.4703C168.85 28.0836 168.85 25.9278 166.892 26.0327C164.679 26.1492 165.378 28.3283 165.215 29.7383C164.446 36.4737 164.027 43.2673 162.897 49.9445C161.743 56.8197 161.184 63.9163 157.596 70.2205C157.689 62.0285 158.237 53.9181 158.679 45.796C158.761 44.4093 159.705 42.172 157.584 41.9039C155.196 41.601 155.266 44.0015 155.08 45.6678C154.02 54.9436 152.191 64.0678 148.894 72.7958C147.356 76.8627 146.319 81.3607 142.335 85.0664C142.219 77.189 143.954 70.407 145.166 63.5667C145.446 61.9819 146.878 59.8145 144.642 59.092C142.44 58.3812 142.3 61.0963 141.368 62.4247C140.075 64.2659 139.994 66.8179 137.815 68.4027C135.31 62.1684 132.98 56.0389 130.371 50.026C129.521 48.0567 129.136 44.2112 126.573 45.0153C123.265 46.0407 125.746 49.4434 126.096 51.6341C127.179 58.3229 128.833 64.9185 129.975 71.5956C130.825 76.6063 131.186 81.6987 129.94 87.6883C126.562 81.7336 123.801 76.653 120.807 71.7121C119.688 69.8593 119.164 66.48 116.333 67.1325C113.339 67.82 114.772 71.0013 114.621 73.1571C114.376 76.7112 114.283 80.2654 114.12 83.8195C113.759 83.8661 113.386 83.9011 113.025 83.9477C112.267 82.1065 111.51 80.2654 110.753 78.4242C108.377 66.4683 106.606 54.4891 107.258 42.2069C107.433 38.9441 109.437 33.1293 105.662 32.803C102.692 32.5466 103.856 38.9441 103.088 42.3584C102.924 44.6773 102.761 47.0079 102.598 49.3269C103.856 53.3588 105.802 57.4489 101.515 60.9681C93.2903 47.206 85.0773 33.4323 76.8294 19.6702C76.1654 18.5631 75.6179 16.7569 73.9986 17.3279C71.9482 18.0504 72.7986 19.775 73.3229 21.255C75.3849 27.1164 76.6314 33.1642 77.6565 39.2937C80.4641 55.9574 77.8662 72.1782 74.185 89.6809C70.2823 83.5631 67.1486 78.5291 63.8867 73.5766C62.8615 72.0151 61.848 69.801 59.4948 70.5585C57.328 71.246 58.3648 73.5067 58.0503 75.1148C57.7474 76.6763 58.8774 78.4941 56.9319 80.1954C49.3014 65.7575 37.8848 55.2349 24.7324 46.4136C23.4975 45.5863 22.1345 43.9898 20.6317 45.1668C18.7678 46.6234 20.2706 48.3364 21.0861 49.8046C25.6993 58.1365 29.3689 66.8878 31.9785 76.012C32.9221 79.3448 35.4151 82.4328 34.5181 86.7677C25.5362 81.5355 16.3447 80.4751 6.75707 83.1436C3.98446 83.9127 0.547832 84.3905 0.0701986 87.8281C-0.465683 91.6736 3.46023 91.557 5.7086 92.466C18.0339 97.4418 27.7613 104.643 29.6136 118.988C31.5125 115.644 34.1569 117.555 36.0558 118.557Z" fill="#A0B453"/>
<path d="M382.957 120.934C382.142 121.074 381.326 121.202 380.522 121.295C381.338 121.19 382.142 121.074 382.957 120.934Z" fill="#A0B453"/>
<path d="M556.746 123.451C556.676 123.451 556.606 123.439 556.536 123.439C556.618 123.439 556.688 123.439 556.746 123.451Z" fill="#A0B453"/>
<path d="M36.0554 118.557C34.1565 117.555 31.512 115.644 29.5898 118.988C31.5004 115.644 34.1565 117.555 36.0554 118.557Z" fill="#A0B453"/>
<path d="M53.7165 118.813C52.7262 119.232 51.7127 119.594 50.6992 119.897C51.7244 119.605 52.7262 119.232 53.7165 118.813Z" fill="#A0B453"/>
<path d="M137.617 118.336C140.972 117.928 144.362 117.695 147.787 117.799C144.351 117.706 140.972 117.939 137.617 118.336Z" fill="#A0B453"/>
<path d="M482.235 109.689C488.479 109.771 494.584 110.54 500.63 111.647C494.584 110.54 488.468 109.771 482.235 109.689Z" fill="#A0B453"/>
<path d="M361.568 118.382C366.345 120.887 371.331 121.761 376.422 121.61C371.319 121.761 366.333 120.887 361.568 118.382Z" fill="#A0B453"/>
<path d="M255.953 111.868C261.999 112.882 267.976 114.723 273.882 116.308C275.385 116.716 276.887 117.1 278.379 117.462C276.876 117.089 275.385 116.704 273.882 116.308C267.964 114.723 261.988 112.882 255.953 111.868Z" fill="#A0B453"/>
<path d="M240.832 111.46C237.36 111.728 233.889 112.066 230.429 112.52C233.889 112.066 237.36 111.716 240.832 111.46Z" fill="#A0B453"/>
</g>
<defs>
<clipPath id="clip0_95_1309">
<rect width="587" height="130" fill="white"/>
</clipPath>
</defs>
</svg>
