<svg width="879" height="879" viewBox="0 0 879 879" fill="none" xmlns="http://www.w3.org/2000/svg">
<path d="M187.154 0.168476C185.056 4.07062 186.986 6.35696 187.796 8.92855C205.337 68.2512 226.356 126.28 248.003 184.125C286.481 287.221 331.659 386.955 394.947 477.12C411.592 500.795 478.673 572.225 494.16 584.766C567.595 644.27 650.145 668.366 743.908 648.445C747.698 647.706 753.439 648.318 754.537 644.263C755.822 639.082 749.749 637.557 746.357 635.11C704.879 605.187 664.326 573.986 626.095 539.766C605.583 521.396 585.465 502.427 565.15 483.758C535.574 450.939 466.741 365.861 471.527 357.158C482.101 367.311 492.409 377.157 502.796 387.142C504.94 390.78 507.358 394.257 511.586 395.753C535.397 424.19 561.855 449.697 590.338 473.281C590.338 473.281 611.3 492.126 622.2 501.073C663.787 535.73 709.568 563.876 757.722 587.959C760.782 589.493 765.353 591.435 767.662 590.177C772.25 587.772 768.971 582.768 768.074 579.232C757.436 535.069 743.84 491.987 721.208 452.342C720.26 449.85 719.696 447.228 718.443 445.007C683.247 377.733 638.211 318.147 585.813 263.51C530.711 206.025 469.42 156.863 403.632 113.189C368.572 89.9425 331.502 70.2694 294.187 50.6476C267.924 36.8386 241.316 23.8772 214.679 11.0254C205.548 6.67334 196.692 2.16044 187.154 0.168476Z" fill="#71DE67"/>
<path d="M573.729 671.689C566.204 669.536 559.556 670.561 553.082 673.514C536.4 681.234 518.389 685.302 501.591 692.167C487.396 697.972 439.659 703.173 447.167 698.969C469.187 686.93 491.285 675.029 513.228 662.851C517.296 660.658 522.853 659.809 523.728 653.576C491.238 636.671 459.929 617.968 431.632 594.552C426.143 590.009 421.993 588.651 415.652 594.11C397.463 609.539 379.491 625.026 364.036 643.194L363.869 643.384C363.23 644.034 362.512 644.546 361.873 645.196C327.235 680.759 298.655 720.9 272.404 764.848C278.448 766.483 283.089 767.738 287.73 768.993C326.691 779.533 366.587 783.621 406.832 784.275C433.915 784.779 497.301 777.813 502.074 776.869C562.632 765.374 619.537 743.834 673.122 713.162C693.119 701.751 713.655 690.486 733.742 672.748C726.938 673.495 723.355 673.467 720.105 674.352C670.919 688.335 622.166 685.733 573.729 671.689Z" fill="#71DE67"/>
</svg>
